<?xml version="1.0" standalone="no"?>
<!DOCTYPE svg PUBLIC "-//W3C//DTD SVG 20010904//EN"
 "http://www.w3.org/TR/2001/REC-SVG-20010904/DTD/svg10.dtd">
<svg version="1.0" xmlns="http://www.w3.org/2000/svg"
 width="881.000000pt" height="225.000000pt" viewBox="0 0 881.000000 225.000000"
 preserveAspectRatio="xMidYMid meet">

<g transform="translate(0.000000,225.000000) scale(0.100000,-0.100000)"
fill="#000000" stroke="none">
<path d="M361 1974 c-34 -43 -21 -102 26 -123 36 -17 59 -13 89 13 36 30 38
91 4 118 -35 28 -94 24 -119 -8z m79 -39 c13 -16 6 -35 -15 -35 -18 0 -28 17
-21 35 7 19 20 19 36 0z"/>
<path d="M5982 1910 c-151 -92 -41 -304 124 -235 83 34 86 190 5 238 -39 23
-89 21 -129 -3z"/>
<path d="M4750 1873 c-95 -49 -83 -183 20 -214 53 -16 107 10 134 65 17 36 18
43 5 79 -25 71 -96 102 -159 70z"/>
<path d="M218 1825 c-35 -20 -48 -44 -48 -93 0 -54 38 -92 92 -92 50 0 74 13
94 52 44 85 -54 180 -138 133z m80 -57 c17 -17 15 -44 -4 -62 -20 -21 -30 -20
-54 4 -24 24 -25 34 -4 54 18 19 45 21 62 4z"/>
<path d="M655 1799 c-103 -10 -167 -25 -216 -49 -67 -35 -79 -92 -28 -142 30
-31 31 -31 107 -25 42 4 87 9 98 13 25 7 27 1 46 -136 8 -63 12 -221 12 -465
0 -314 -3 -401 -22 -573 -26 -235 -23 -250 42 -267 44 -10 77 3 107 45 42 58
62 214 75 582 l7 196 206 5 c224 5 268 13 313 57 39 39 38 82 -3 122 -29 30
-32 30 -92 24 -34 -3 -143 -9 -243 -13 l-181 -6 -7 129 c-7 122 -19 235 -32
297 l-6 27 74 0 c98 0 322 -16 491 -36 76 -8 152 -12 168 -9 90 20 92 124 2
169 -99 50 -642 83 -918 55z"/>
<path d="M4230 1793 c-95 -49 -83 -183 20 -214 53 -16 107 10 134 65 17 36 18
43 5 79 -25 71 -96 102 -159 70z"/>
<path d="M3887 1630 c-32 -25 -51 -82 -77 -230 -39 -226 -53 -412 -54 -715 -1
-318 4 -357 54 -407 39 -39 82 -38 122 2 27 28 30 35 24 73 -13 91 -18 503 -7
593 21 168 68 268 146 308 56 29 162 29 202 0 55 -41 58 -57 45 -284 -24 -398
-10 -559 51 -627 26 -29 76 -30 108 -4 27 22 26 5 14 311 -8 203 5 448 31 547
27 107 90 173 172 181 86 8 134 -33 169 -143 27 -91 25 -421 -6 -645 -37 -270
-37 -264 -12 -289 67 -67 148 21 185 199 39 192 46 628 12 768 -49 200 -164
293 -340 279 -95 -8 -179 -50 -245 -123 -28 -31 -51 -60 -51 -66 0 -5 -21 9
-46 31 -26 22 -63 45 -83 51 -88 24 -192 2 -261 -57 -41 -35 -43 -36 -37 -13
31 131 39 201 27 231 -21 51 -96 66 -143 29z"/>
<path d="M2903 1609 c-210 -35 -370 -190 -424 -409 -21 -82 -17 -327 5 -409
54 -198 185 -329 361 -362 33 -6 101 -9 150 -6 353 20 572 281 552 657 -18
335 -219 544 -520 539 -40 -1 -95 -5 -124 -10z m252 -188 c157 -70 237 -276
194 -506 -25 -138 -111 -251 -224 -295 -85 -33 -241 -35 -300 -3 -124 67 -184
220 -172 437 12 219 88 338 246 383 68 19 195 11 256 -16z"/>
<path d="M3070 1135 c-26 -32 13 -81 48 -59 34 22 22 74 -18 74 -10 0 -23 -7
-30 -15z"/>
<path d="M2860 1125 c-26 -32 13 -81 48 -59 34 22 22 74 -18 74 -10 0 -23 -7
-30 -15z"/>
<path d="M2840 906 c0 -26 51 -67 108 -87 58 -20 161 10 206 60 18 20 18 23 4
37 -14 14 -21 13 -70 -15 -76 -43 -145 -38 -187 13 -8 9 -24 16 -37 16 -19 0
-24 -5 -24 -24z"/>
<path d="M6784 1610 c-34 -13 -82 -79 -112 -152 l-27 -67 -85 -12 c-217 -30
-316 -100 -252 -179 25 -30 88 -36 193 -16 47 9 88 16 90 16 3 0 -1 -39 -9
-87 -16 -108 -10 -312 14 -398 36 -136 103 -223 208 -272 55 -25 72 -28 171
-28 95 0 116 3 158 24 74 36 98 102 56 155 -25 31 -47 32 -124 6 -74 -25 -108
-25 -161 1 -52 24 -97 88 -116 162 -17 68 -17 279 1 386 l14 84 82 -5 c54 -4
116 -17 182 -39 97 -31 102 -32 127 -16 49 32 46 100 -6 148 -37 35 -104 57
-223 71 -49 6 -91 12 -92 13 -2 1 6 27 17 58 27 76 25 103 -6 132 -27 25 -62
31 -100 15z"/>
<path d="M7649 1586 c-197 -53 -304 -263 -240 -474 30 -100 87 -172 223 -279
128 -102 154 -138 145 -206 -18 -134 -184 -181 -290 -83 -14 13 -27 39 -31 65
-13 85 -92 119 -153 67 -26 -22 -28 -30 -28 -93 0 -56 5 -76 27 -114 57 -97
194 -156 340 -146 182 12 309 130 325 301 13 140 -30 217 -196 350 -64 52
-126 104 -138 118 -67 71 -71 217 -9 287 65 73 204 64 267 -18 47 -62 68 -81
93 -81 124 0 127 156 5 246 -91 66 -227 91 -340 60z"/>
<path d="M5987 1510 c-15 -12 -31 -38 -37 -58 -5 -21 -10 -153 -10 -307 0
-299 -9 -436 -41 -599 -21 -108 -21 -108 -2 -135 37 -49 101 -53 142 -10 39
42 65 217 81 554 15 304 13 500 -5 534 -24 47 -83 56 -128 21z"/>
<path d="M1643 1491 c-57 -35 -55 -74 6 -180 79 -136 106 -253 106 -456 0
-111 -5 -165 -25 -258 -22 -108 -23 -120 -10 -145 33 -57 105 -54 145 6 47 71
66 176 74 417 9 250 20 295 92 359 63 58 126 59 205 5 52 -36 77 -37 111 -3
22 22 25 32 20 71 -14 126 -199 183 -352 108 -50 -24 -72 -45 -134 -125 l-19
-25 -7 30 c-4 17 -23 63 -42 103 -49 105 -102 134 -170 93z"/>
<path d="M8288 1270 c-50 -9 -82 -32 -98 -70 -12 -29 -11 -33 13 -58 25 -25
29 -26 59 -13 146 61 253 -36 179 -162 -25 -43 -66 -63 -181 -87 -125 -26
-147 -37 -194 -91 -40 -47 -63 -126 -52 -182 11 -58 65 -127 124 -160 71 -39
170 -48 222 -19 69 37 101 120 62 155 -29 26 -68 21 -91 -12 -35 -49 -112 -49
-161 1 -64 63 -24 148 78 168 155 29 222 59 274 120 37 42 68 122 68 172 0
143 -155 264 -302 238z"/>
<path d="M5347 1149 c-52 -12 -94 -35 -107 -58 -18 -35 -12 -80 16 -108 25
-25 26 -25 142 -18 64 4 155 8 200 9 79 1 85 3 108 29 25 29 31 75 14 106 -19
36 -82 51 -213 50 -67 -1 -139 -5 -160 -10z"/>
</g>
</svg>
